#!OML:ASF H:\GeneralSubjects\Female5\Project 1\Capture day 1\Session 1\Female5.ASF
:FULLY-SPECIFIED
:DEGREES
273
root 37.7206 15.9521 4.56542 -100.409 -95.6467 119.379
lowerback 23.5088 -5.86637 -14.8259
upperback -13.0038 -13.0011 13.4833
thorax -26.4805 1.21086 38.665
lowerneck -15.1971 3.0868 -5.57528
upperneck 39.1753 6.73218 -6.62012
head 16.9637 0.0564695 -1.03214
rclavicle -3.91606e-014 9.85972e-014
rhumerus -69.7372 61.7864 -95.9627
rradius 50.146
rwrist -19.6969
rhand -25.7669 -18.8612
rfingers 7.12502
rthumb 0.770911 -48.8395
lclavicle -3.91606e-014 9.85972e-014
lhumerus -66.1591 28.7128 74.6145
lradius 39.7117
lwrist -10.2103
lhand -28.7419 28.2225
lfingers 7.12502
lthumb -2.10239 58.1919
rfemur -28.2298 -7.74501 34.7982
rtibia 15.1435
rfoot -27.6616 -24.8246
rtoes -10.8052
lfemur -15.6416 -13.3276 -23.6604
ltibia 15.1813
lfoot -29.3694 -18.8829
ltoes -10.7819
274
root 37.7889 15.9583 4.57025 -96.3012 -95.4811 115.413
lowerback 23.4058 -5.94249 -14.6978
upperback -13.0917 -13.0706 13.4964
thorax -26.5004 1.14854 38.5649
lowerneck -15.1254 2.61895 -5.93005
upperneck 39.299 5.9609 -6.34435
head 16.9698 -0.292131 -0.994885
rclavicle -9.97899e-014 9.22361e-014
rhumerus -69.4495 61.6557 -95.4767
rradius 49.9961
rwrist -19.4859
rhand -26.0241 -19.2647
rfingers 7.12502
rthumb 0.522497 -49.2438
lclavicle -9.97899e-014 9.22361e-014
lhumerus -66.3709 28.6254 74.7207
lradius 40.1584
lwrist -9.46835
lhand -28.4271 28.1749
lfingers 7.12502
lthumb -1.79839 58.1471
rfemur -27.7703 -9.77944 34.9907
rtibia 17.0908
rfoot -29.5397 -25.165
rtoes -8.66232
lfemur -16.2065 -13.1301 -23.6041
ltibia 15.4064
lfoot -29.6374 -18.7018
ltoes -10.8614
275
root 37.8499 15.9642 4.57637 -90.6698 -95.3043 109.896
lowerback 23.2534 -5.99881 -14.5379
upperback -13.1757 -13.0896 13.521
thorax -26.5109 1.09224 38.4163
lowerneck -15.042 2.16284 -6.28061
upperneck 39.4124 5.22415 -6.13485
head 16.9802 -0.636626 -0.981824
rclavicle 6.22196e-014 1.59028e-014
rhumerus -69.0004 61.494 -94.8608
rradius 49.8253
rwrist -19.4114
rhand -26.3657 -20.0174
rfingers 7.12502
rthumb 0.192521 -49.9971
lclavicle 6.22196e-014 1.59028e-014
lhumerus -66.6436 28.605 74.8235
lradius 40.6584
lwrist -8.67159
lhand -28.1102 28.1857
lfingers 7.12502
lthumb -1.49236 58.1602
rfemur -27.1104 -11.4376 34.9642
rtibia 18.6353
rfoot -31.4495 -25.612
rtoes -6.25386
lfemur -16.681 -12.9058 -23.5642
ltibia 15.5882
lfoot -29.8847 -18.5475
ltoes -10.6635
276
root 37.9039 15.9699 4.58379 -83.0419 -95.1549 102.34
lowerback 23.0694 -6.02162 -14.3627
upperback -13.2465 -13.0478 13.5534
thorax -26.5215 1.05552 38.2372
lowerneck -14.9364 1.72635 -6.62408
upperneck 39.4985 4.53244 -5.99033
head 16.9809 -0.970276 -0.990077
rclavicle -1.30005e-013 -6.36111e-015
rhumerus -68.5024 61.3413 -94.236
rradius 49.6604
rwrist -19.4734
rhand -26.6472 -21.0716
rfingers 7.12502
rthumb -0.079379 -51.0513
lclavicle -1.30005e-013 -6.36111e-015
lhumerus -66.9757 28.6654 74.9052
lradius 41.1368
lwrist -7.88882
lhand -27.9273 28.2993
lfingers 7.12502
lthumb -1.31569 58.275
rfemur -26.2571 -12.7708 34.7671
rtibia 19.7107
rfoot -33.4077 -26.0645
rtoes -3.56176
lfemur -17.0012 -12.6716 -23.5516
ltibia 15.6737
lfoot -30.1685 -18.3606
ltoes -10.1276
277
root 37.9516 15.9755 4.59222 -73.1136 -95.0956 92.4364
lowerback 22.8629 -5.99982 -14.1997
upperback -13.2992 -12.9427 13.5889
thorax -26.5317 1.04731 38.0507
lowerneck -14.8096 1.31008 -6.9643
upperneck 39.5605 3.88525 -5.9033
head 16.9716 -1.29318 -1.01575
rclavicle 8.82604e-014 -2.8625e-014
rhumerus -67.9803 61.2126 -93.6356
rradius 49.4943
rwrist -19.6003
rhand -26.7627 -22.1932
rfingers 7.12502
rthumb -0.190912 -52.1729
lclavicle 8.82604e-014 -2.8625e-014
lhumerus -67.3737 28.8326 74.9155
lradius 41.5252
lwrist -7.20289
lhand -27.896 28.4817
lfingers 7.12502
lthumb -1.2855 58.4576
rfemur -25.2485 -13.8369 34.4434
rtibia 20.3136
rfoot -35.3683 -26.5087
rtoes -0.72051
lfemur -17.1357 -12.4472 -23.5743
ltibia 15.6166
lfoot -30.5163 -18.1577
ltoes -9.19882
278
root 37.9931 15.9806 4.60122 -60.9853 -95.2227 80.2804
lowerback 22.6298 -5.92295 -14.0787
upperback -13.3302 -12.7707 13.6231
thorax -26.5292 1.07143 37.8701
lowerneck -14.6348 0.913883 -7.28536
upperneck 39.5708 3.27683 -5.88064
head 16.9293 -1.60369 -1.06375
rclavicle 4.37326e-015 7.63333e-014
rhumerus -67.4122 61.1004 -93.0453
rradius 49.3041
rwrist -19.7524
rhand -26.6874 -23.0076
rfingers 7.12502
rthumb -0.118145 -52.9873
lclavicle 4.37326e-015 7.63333e-014
lhumerus -67.8448 29.0879 74.8433
lradius 41.8021
lwrist -6.63182
lhand -27.9647 28.6038
lfingers 7.12502
lthumb -1.35181 58.5793
rfemur -24.1462 -14.7033 34.0381
rtibia 20.5083
rfoot -37.291 -26.9477
rtoes 2.19641
lfemur -17.0761 -12.2011 -23.6406
ltibia 15.4084
lfoot -30.957 -17.9424
ltoes -7.97177
